<svg xmlns="http://www.w3.org/2000/svg" viewBox="0 0 400 400" role="img" aria-label="A fisheye camera lens that is also an eye">
<defs>
  <radialGradient id="barrel" cx="50%" cy="45%" r="55%">
    <stop offset="0.80" stop-color="#4a4541"/><stop offset="0.92" stop-color="#1c1a18"/><stop offset="1" stop-color="#0e0d0c"/>
  </radialGradient>
  <radialGradient id="glass" cx="42%" cy="38%" r="70%">
    <stop offset="0" stop-color="#1b3d45"/><stop offset="0.55" stop-color="#0d1f26"/><stop offset="1" stop-color="#050a0c"/>
  </radialGradient>
  <radialGradient id="iris" cx="50%" cy="50%" r="50%">
    <stop offset="0.30" stop-color="#f2b25c"/><stop offset="0.62" stop-color="#d9722f"/><stop offset="0.88" stop-color="#8c3a1c"/><stop offset="1" stop-color="#3c1a0e"/>
  </radialGradient>
  <linearGradient id="sheen" x1="0" y1="0" x2="1" y2="1">
    <stop offset="0" stop-color="#ffffff" stop-opacity="0.55"/><stop offset="1" stop-color="#ffffff" stop-opacity="0"/>
  </linearGradient>
  <clipPath id="glassclip"><circle cx="200" cy="200" r="150"/></clipPath>
  <style>
    .focus { transform-origin: 200px 200px; animation: turn 40s linear infinite; }
    .blades { transform-origin: 200px 200px; animation: breathe 7s ease-in-out infinite; }
    @keyframes turn { to { transform: rotate(360deg); } }
    @keyframes breathe { 0%, 100% { transform: scale(1); } 50% { transform: scale(0.9); } }
    @media (prefers-reduced-motion: reduce) { .focus, .blades { animation: none; } }
  </style>
</defs>
<circle cx="200" cy="200" r="196" fill="url(#barrel)"/>
<g class="focus">
<line x1="376.0" y1="200.0" x2="390.0" y2="200.0" stroke="#ece5d6" stroke-opacity="0.9" stroke-width="2"/>
<line x1="380.3" y1="215.8" x2="389.3" y2="216.6" stroke="#ece5d6" stroke-opacity="0.45" stroke-width="1"/>
<line x1="378.3" y1="231.4" x2="387.1" y2="233.0" stroke="#ece5d6" stroke-opacity="0.45" stroke-width="1"/>
<line x1="374.8" y1="246.8" x2="383.5" y2="249.2" stroke="#ece5d6" stroke-opacity="0.45" stroke-width="1"/>
<line x1="370.1" y1="261.9" x2="378.5" y2="265.0" stroke="#ece5d6" stroke-opacity="0.45" stroke-width="1"/>
<line x1="364.0" y1="276.5" x2="372.2" y2="280.3" stroke="#ece5d6" stroke-opacity="0.45" stroke-width="1"/>
<line x1="352.4" y1="288.0" x2="364.5" y2="295.0" stroke="#ece5d6" stroke-opacity="0.9" stroke-width="2"/>
<line x1="348.3" y1="303.8" x2="355.6" y2="309.0" stroke="#ece5d6" stroke-opacity="0.45" stroke-width="1"/>
<line x1="338.7" y1="316.3" x2="345.5" y2="322.1" stroke="#ece5d6" stroke-opacity="0.45" stroke-width="1"/>
<line x1="328.0" y1="328.0" x2="334.4" y2="334.4" stroke="#ece5d6" stroke-opacity="0.45" stroke-width="1"/>
<line x1="316.3" y1="338.7" x2="322.1" y2="345.5" stroke="#ece5d6" stroke-opacity="0.45" stroke-width="1"/>
<line x1="303.8" y1="348.3" x2="309.0" y2="355.6" stroke="#ece5d6" stroke-opacity="0.45" stroke-width="1"/>
<line x1="288.0" y1="352.4" x2="295.0" y2="364.5" stroke="#ece5d6" stroke-opacity="0.9" stroke-width="2"/>
<line x1="276.5" y1="364.0" x2="280.3" y2="372.2" stroke="#ece5d6" stroke-opacity="0.45" stroke-width="1"/>
<line x1="261.9" y1="370.1" x2="265.0" y2="378.5" stroke="#ece5d6" stroke-opacity="0.45" stroke-width="1"/>
<line x1="246.8" y1="374.8" x2="249.2" y2="383.5" stroke="#ece5d6" stroke-opacity="0.45" stroke-width="1"/>
<line x1="231.4" y1="378.3" x2="233.0" y2="387.1" stroke="#ece5d6" stroke-opacity="0.45" stroke-width="1"/>
<line x1="215.8" y1="380.3" x2="216.6" y2="389.3" stroke="#ece5d6" stroke-opacity="0.45" stroke-width="1"/>
<line x1="200.0" y1="376.0" x2="200.0" y2="390.0" stroke="#ece5d6" stroke-opacity="0.9" stroke-width="2"/>
<line x1="184.2" y1="380.3" x2="183.4" y2="389.3" stroke="#ece5d6" stroke-opacity="0.45" stroke-width="1"/>
<line x1="168.6" y1="378.3" x2="167.0" y2="387.1" stroke="#ece5d6" stroke-opacity="0.45" stroke-width="1"/>
<line x1="153.2" y1="374.8" x2="150.8" y2="383.5" stroke="#ece5d6" stroke-opacity="0.45" stroke-width="1"/>
<line x1="138.1" y1="370.1" x2="135.0" y2="378.5" stroke="#ece5d6" stroke-opacity="0.45" stroke-width="1"/>
<line x1="123.5" y1="364.0" x2="119.7" y2="372.2" stroke="#ece5d6" stroke-opacity="0.45" stroke-width="1"/>
<line x1="112.0" y1="352.4" x2="105.0" y2="364.5" stroke="#ece5d6" stroke-opacity="0.9" stroke-width="2"/>
<line x1="96.2" y1="348.3" x2="91.0" y2="355.6" stroke="#ece5d6" stroke-opacity="0.45" stroke-width="1"/>
<line x1="83.7" y1="338.7" x2="77.9" y2="345.5" stroke="#ece5d6" stroke-opacity="0.45" stroke-width="1"/>
<line x1="72.0" y1="328.0" x2="65.6" y2="334.4" stroke="#ece5d6" stroke-opacity="0.45" stroke-width="1"/>
<line x1="61.3" y1="316.3" x2="54.5" y2="322.1" stroke="#ece5d6" stroke-opacity="0.45" stroke-width="1"/>
<line x1="51.7" y1="303.8" x2="44.4" y2="309.0" stroke="#ece5d6" stroke-opacity="0.45" stroke-width="1"/>
<line x1="47.6" y1="288.0" x2="35.5" y2="295.0" stroke="#ece5d6" stroke-opacity="0.9" stroke-width="2"/>
<line x1="36.0" y1="276.5" x2="27.8" y2="280.3" stroke="#ece5d6" stroke-opacity="0.45" stroke-width="1"/>
<line x1="29.9" y1="261.9" x2="21.5" y2="265.0" stroke="#ece5d6" stroke-opacity="0.45" stroke-width="1"/>
<line x1="25.2" y1="246.8" x2="16.5" y2="249.2" stroke="#ece5d6" stroke-opacity="0.45" stroke-width="1"/>
<line x1="21.7" y1="231.4" x2="12.9" y2="233.0" stroke="#ece5d6" stroke-opacity="0.45" stroke-width="1"/>
<line x1="19.7" y1="215.8" x2="10.7" y2="216.6" stroke="#ece5d6" stroke-opacity="0.45" stroke-width="1"/>
<line x1="24.0" y1="200.0" x2="10.0" y2="200.0" stroke="#ece5d6" stroke-opacity="0.9" stroke-width="2"/>
<line x1="19.7" y1="184.2" x2="10.7" y2="183.4" stroke="#ece5d6" stroke-opacity="0.45" stroke-width="1"/>
<line x1="21.7" y1="168.6" x2="12.9" y2="167.0" stroke="#ece5d6" stroke-opacity="0.45" stroke-width="1"/>
<line x1="25.2" y1="153.2" x2="16.5" y2="150.8" stroke="#ece5d6" stroke-opacity="0.45" stroke-width="1"/>
<line x1="29.9" y1="138.1" x2="21.5" y2="135.0" stroke="#ece5d6" stroke-opacity="0.45" stroke-width="1"/>
<line x1="36.0" y1="123.5" x2="27.8" y2="119.7" stroke="#ece5d6" stroke-opacity="0.45" stroke-width="1"/>
<line x1="47.6" y1="112.0" x2="35.5" y2="105.0" stroke="#ece5d6" stroke-opacity="0.9" stroke-width="2"/>
<line x1="51.7" y1="96.2" x2="44.4" y2="91.0" stroke="#ece5d6" stroke-opacity="0.45" stroke-width="1"/>
<line x1="61.3" y1="83.7" x2="54.5" y2="77.9" stroke="#ece5d6" stroke-opacity="0.45" stroke-width="1"/>
<line x1="72.0" y1="72.0" x2="65.6" y2="65.6" stroke="#ece5d6" stroke-opacity="0.45" stroke-width="1"/>
<line x1="83.7" y1="61.3" x2="77.9" y2="54.5" stroke="#ece5d6" stroke-opacity="0.45" stroke-width="1"/>
<line x1="96.2" y1="51.7" x2="91.0" y2="44.4" stroke="#ece5d6" stroke-opacity="0.45" stroke-width="1"/>
<line x1="112.0" y1="47.6" x2="105.0" y2="35.5" stroke="#ece5d6" stroke-opacity="0.9" stroke-width="2"/>
<line x1="123.5" y1="36.0" x2="119.7" y2="27.8" stroke="#ece5d6" stroke-opacity="0.45" stroke-width="1"/>
<line x1="138.1" y1="29.9" x2="135.0" y2="21.5" stroke="#ece5d6" stroke-opacity="0.45" stroke-width="1"/>
<line x1="153.2" y1="25.2" x2="150.8" y2="16.5" stroke="#ece5d6" stroke-opacity="0.45" stroke-width="1"/>
<line x1="168.6" y1="21.7" x2="167.0" y2="12.9" stroke="#ece5d6" stroke-opacity="0.45" stroke-width="1"/>
<line x1="184.2" y1="19.7" x2="183.4" y2="10.7" stroke="#ece5d6" stroke-opacity="0.45" stroke-width="1"/>
<line x1="200.0" y1="24.0" x2="200.0" y2="10.0" stroke="#ece5d6" stroke-opacity="0.9" stroke-width="2"/>
<line x1="215.8" y1="19.7" x2="216.6" y2="10.7" stroke="#ece5d6" stroke-opacity="0.45" stroke-width="1"/>
<line x1="231.4" y1="21.7" x2="233.0" y2="12.9" stroke="#ece5d6" stroke-opacity="0.45" stroke-width="1"/>
<line x1="246.8" y1="25.2" x2="249.2" y2="16.5" stroke="#ece5d6" stroke-opacity="0.45" stroke-width="1"/>
<line x1="261.9" y1="29.9" x2="265.0" y2="21.5" stroke="#ece5d6" stroke-opacity="0.45" stroke-width="1"/>
<line x1="276.5" y1="36.0" x2="280.3" y2="27.8" stroke="#ece5d6" stroke-opacity="0.45" stroke-width="1"/>
<line x1="288.0" y1="47.6" x2="295.0" y2="35.5" stroke="#ece5d6" stroke-opacity="0.9" stroke-width="2"/>
<line x1="303.8" y1="51.7" x2="309.0" y2="44.4" stroke="#ece5d6" stroke-opacity="0.45" stroke-width="1"/>
<line x1="316.3" y1="61.3" x2="322.1" y2="54.5" stroke="#ece5d6" stroke-opacity="0.45" stroke-width="1"/>
<line x1="328.0" y1="72.0" x2="334.4" y2="65.6" stroke="#ece5d6" stroke-opacity="0.45" stroke-width="1"/>
<line x1="338.7" y1="83.7" x2="345.5" y2="77.9" stroke="#ece5d6" stroke-opacity="0.45" stroke-width="1"/>
<line x1="348.3" y1="96.2" x2="355.6" y2="91.0" stroke="#ece5d6" stroke-opacity="0.45" stroke-width="1"/>
<line x1="352.4" y1="112.0" x2="364.5" y2="105.0" stroke="#ece5d6" stroke-opacity="0.9" stroke-width="2"/>
<line x1="364.0" y1="123.5" x2="372.2" y2="119.7" stroke="#ece5d6" stroke-opacity="0.45" stroke-width="1"/>
<line x1="370.1" y1="138.1" x2="378.5" y2="135.0" stroke="#ece5d6" stroke-opacity="0.45" stroke-width="1"/>
<line x1="374.8" y1="153.2" x2="383.5" y2="150.8" stroke="#ece5d6" stroke-opacity="0.45" stroke-width="1"/>
<line x1="378.3" y1="168.6" x2="387.1" y2="167.0" stroke="#ece5d6" stroke-opacity="0.45" stroke-width="1"/>
<line x1="380.3" y1="184.2" x2="389.3" y2="183.4" stroke="#ece5d6" stroke-opacity="0.45" stroke-width="1"/>
</g>
<circle cx="200" cy="200" r="168" fill="none" stroke="#a4502f" stroke-width="3"/>
<circle cx="200" cy="200" r="160" fill="#0a0908"/>
<circle cx="200" cy="200" r="150" fill="url(#glass)"/>
<g clip-path="url(#glassclip)">
<circle cx="200" cy="200" r="104" fill="url(#iris)"/>
<line x1="246.0" y1="200.0" x2="288.0" y2="200.0" stroke="#3c1a0e" stroke-opacity="0.45" stroke-width="1.1"/>
<line x1="245.9" y1="203.0" x2="299.8" y2="206.5" stroke="#3c1a0e" stroke-opacity="0.45" stroke-width="1.1"/>
<line x1="245.6" y1="206.0" x2="287.2" y2="211.5" stroke="#3c1a0e" stroke-opacity="0.45" stroke-width="1.1"/>
<line x1="245.1" y1="209.0" x2="298.1" y2="219.5" stroke="#3c1a0e" stroke-opacity="0.45" stroke-width="1.1"/>
<line x1="244.4" y1="211.9" x2="285.0" y2="222.8" stroke="#3c1a0e" stroke-opacity="0.45" stroke-width="1.1"/>
<line x1="243.6" y1="214.8" x2="294.7" y2="232.1" stroke="#3c1a0e" stroke-opacity="0.45" stroke-width="1.1"/>
<line x1="242.5" y1="217.6" x2="281.3" y2="233.7" stroke="#3c1a0e" stroke-opacity="0.45" stroke-width="1.1"/>
<line x1="241.3" y1="220.3" x2="289.7" y2="244.2" stroke="#3c1a0e" stroke-opacity="0.45" stroke-width="1.1"/>
<line x1="239.8" y1="223.0" x2="276.2" y2="244.0" stroke="#3c1a0e" stroke-opacity="0.45" stroke-width="1.1"/>
<line x1="238.2" y1="225.6" x2="283.1" y2="255.6" stroke="#3c1a0e" stroke-opacity="0.45" stroke-width="1.1"/>
<line x1="236.5" y1="228.0" x2="269.8" y2="253.6" stroke="#3c1a0e" stroke-opacity="0.45" stroke-width="1.1"/>
<line x1="234.6" y1="230.3" x2="275.2" y2="265.9" stroke="#3c1a0e" stroke-opacity="0.45" stroke-width="1.1"/>
<line x1="232.5" y1="232.5" x2="262.2" y2="262.2" stroke="#3c1a0e" stroke-opacity="0.45" stroke-width="1.1"/>
<line x1="230.3" y1="234.6" x2="265.9" y2="275.2" stroke="#3c1a0e" stroke-opacity="0.45" stroke-width="1.1"/>
<line x1="228.0" y1="236.5" x2="253.6" y2="269.8" stroke="#3c1a0e" stroke-opacity="0.45" stroke-width="1.1"/>
<line x1="225.6" y1="238.2" x2="255.6" y2="283.1" stroke="#3c1a0e" stroke-opacity="0.45" stroke-width="1.1"/>
<line x1="223.0" y1="239.8" x2="244.0" y2="276.2" stroke="#3c1a0e" stroke-opacity="0.45" stroke-width="1.1"/>
<line x1="220.3" y1="241.3" x2="244.2" y2="289.7" stroke="#3c1a0e" stroke-opacity="0.45" stroke-width="1.1"/>
<line x1="217.6" y1="242.5" x2="233.7" y2="281.3" stroke="#3c1a0e" stroke-opacity="0.45" stroke-width="1.1"/>
<line x1="214.8" y1="243.6" x2="232.1" y2="294.7" stroke="#3c1a0e" stroke-opacity="0.45" stroke-width="1.1"/>
<line x1="211.9" y1="244.4" x2="222.8" y2="285.0" stroke="#3c1a0e" stroke-opacity="0.45" stroke-width="1.1"/>
<line x1="209.0" y1="245.1" x2="219.5" y2="298.1" stroke="#3c1a0e" stroke-opacity="0.45" stroke-width="1.1"/>
<line x1="206.0" y1="245.6" x2="211.5" y2="287.2" stroke="#3c1a0e" stroke-opacity="0.45" stroke-width="1.1"/>
<line x1="203.0" y1="245.9" x2="206.5" y2="299.8" stroke="#3c1a0e" stroke-opacity="0.45" stroke-width="1.1"/>
<line x1="200.0" y1="246.0" x2="200.0" y2="288.0" stroke="#3c1a0e" stroke-opacity="0.45" stroke-width="1.1"/>
<line x1="197.0" y1="245.9" x2="193.5" y2="299.8" stroke="#3c1a0e" stroke-opacity="0.45" stroke-width="1.1"/>
<line x1="194.0" y1="245.6" x2="188.5" y2="287.2" stroke="#3c1a0e" stroke-opacity="0.45" stroke-width="1.1"/>
<line x1="191.0" y1="245.1" x2="180.5" y2="298.1" stroke="#3c1a0e" stroke-opacity="0.45" stroke-width="1.1"/>
<line x1="188.1" y1="244.4" x2="177.2" y2="285.0" stroke="#3c1a0e" stroke-opacity="0.45" stroke-width="1.1"/>
<line x1="185.2" y1="243.6" x2="167.9" y2="294.7" stroke="#3c1a0e" stroke-opacity="0.45" stroke-width="1.1"/>
<line x1="182.4" y1="242.5" x2="166.3" y2="281.3" stroke="#3c1a0e" stroke-opacity="0.45" stroke-width="1.1"/>
<line x1="179.7" y1="241.3" x2="155.8" y2="289.7" stroke="#3c1a0e" stroke-opacity="0.45" stroke-width="1.1"/>
<line x1="177.0" y1="239.8" x2="156.0" y2="276.2" stroke="#3c1a0e" stroke-opacity="0.45" stroke-width="1.1"/>
<line x1="174.4" y1="238.2" x2="144.4" y2="283.1" stroke="#3c1a0e" stroke-opacity="0.45" stroke-width="1.1"/>
<line x1="172.0" y1="236.5" x2="146.4" y2="269.8" stroke="#3c1a0e" stroke-opacity="0.45" stroke-width="1.1"/>
<line x1="169.7" y1="234.6" x2="134.1" y2="275.2" stroke="#3c1a0e" stroke-opacity="0.45" stroke-width="1.1"/>
<line x1="167.5" y1="232.5" x2="137.8" y2="262.2" stroke="#3c1a0e" stroke-opacity="0.45" stroke-width="1.1"/>
<line x1="165.4" y1="230.3" x2="124.8" y2="265.9" stroke="#3c1a0e" stroke-opacity="0.45" stroke-width="1.1"/>
<line x1="163.5" y1="228.0" x2="130.2" y2="253.6" stroke="#3c1a0e" stroke-opacity="0.45" stroke-width="1.1"/>
<line x1="161.8" y1="225.6" x2="116.9" y2="255.6" stroke="#3c1a0e" stroke-opacity="0.45" stroke-width="1.1"/>
<line x1="160.2" y1="223.0" x2="123.8" y2="244.0" stroke="#3c1a0e" stroke-opacity="0.45" stroke-width="1.1"/>
<line x1="158.7" y1="220.3" x2="110.3" y2="244.2" stroke="#3c1a0e" stroke-opacity="0.45" stroke-width="1.1"/>
<line x1="157.5" y1="217.6" x2="118.7" y2="233.7" stroke="#3c1a0e" stroke-opacity="0.45" stroke-width="1.1"/>
<line x1="156.4" y1="214.8" x2="105.3" y2="232.1" stroke="#3c1a0e" stroke-opacity="0.45" stroke-width="1.1"/>
<line x1="155.6" y1="211.9" x2="115.0" y2="222.8" stroke="#3c1a0e" stroke-opacity="0.45" stroke-width="1.1"/>
<line x1="154.9" y1="209.0" x2="101.9" y2="219.5" stroke="#3c1a0e" stroke-opacity="0.45" stroke-width="1.1"/>
<line x1="154.4" y1="206.0" x2="112.8" y2="211.5" stroke="#3c1a0e" stroke-opacity="0.45" stroke-width="1.1"/>
<line x1="154.1" y1="203.0" x2="100.2" y2="206.5" stroke="#3c1a0e" stroke-opacity="0.45" stroke-width="1.1"/>
<line x1="154.0" y1="200.0" x2="112.0" y2="200.0" stroke="#3c1a0e" stroke-opacity="0.45" stroke-width="1.1"/>
<line x1="154.1" y1="197.0" x2="100.2" y2="193.5" stroke="#3c1a0e" stroke-opacity="0.45" stroke-width="1.1"/>
<line x1="154.4" y1="194.0" x2="112.8" y2="188.5" stroke="#3c1a0e" stroke-opacity="0.45" stroke-width="1.1"/>
<line x1="154.9" y1="191.0" x2="101.9" y2="180.5" stroke="#3c1a0e" stroke-opacity="0.45" stroke-width="1.1"/>
<line x1="155.6" y1="188.1" x2="115.0" y2="177.2" stroke="#3c1a0e" stroke-opacity="0.45" stroke-width="1.1"/>
<line x1="156.4" y1="185.2" x2="105.3" y2="167.9" stroke="#3c1a0e" stroke-opacity="0.45" stroke-width="1.1"/>
<line x1="157.5" y1="182.4" x2="118.7" y2="166.3" stroke="#3c1a0e" stroke-opacity="0.45" stroke-width="1.1"/>
<line x1="158.7" y1="179.7" x2="110.3" y2="155.8" stroke="#3c1a0e" stroke-opacity="0.45" stroke-width="1.1"/>
<line x1="160.2" y1="177.0" x2="123.8" y2="156.0" stroke="#3c1a0e" stroke-opacity="0.45" stroke-width="1.1"/>
<line x1="161.8" y1="174.4" x2="116.9" y2="144.4" stroke="#3c1a0e" stroke-opacity="0.45" stroke-width="1.1"/>
<line x1="163.5" y1="172.0" x2="130.2" y2="146.4" stroke="#3c1a0e" stroke-opacity="0.45" stroke-width="1.1"/>
<line x1="165.4" y1="169.7" x2="124.8" y2="134.1" stroke="#3c1a0e" stroke-opacity="0.45" stroke-width="1.1"/>
<line x1="167.5" y1="167.5" x2="137.8" y2="137.8" stroke="#3c1a0e" stroke-opacity="0.45" stroke-width="1.1"/>
<line x1="169.7" y1="165.4" x2="134.1" y2="124.8" stroke="#3c1a0e" stroke-opacity="0.45" stroke-width="1.1"/>
<line x1="172.0" y1="163.5" x2="146.4" y2="130.2" stroke="#3c1a0e" stroke-opacity="0.45" stroke-width="1.1"/>
<line x1="174.4" y1="161.8" x2="144.4" y2="116.9" stroke="#3c1a0e" stroke-opacity="0.45" stroke-width="1.1"/>
<line x1="177.0" y1="160.2" x2="156.0" y2="123.8" stroke="#3c1a0e" stroke-opacity="0.45" stroke-width="1.1"/>
<line x1="179.7" y1="158.7" x2="155.8" y2="110.3" stroke="#3c1a0e" stroke-opacity="0.45" stroke-width="1.1"/>
<line x1="182.4" y1="157.5" x2="166.3" y2="118.7" stroke="#3c1a0e" stroke-opacity="0.45" stroke-width="1.1"/>
<line x1="185.2" y1="156.4" x2="167.9" y2="105.3" stroke="#3c1a0e" stroke-opacity="0.45" stroke-width="1.1"/>
<line x1="188.1" y1="155.6" x2="177.2" y2="115.0" stroke="#3c1a0e" stroke-opacity="0.45" stroke-width="1.1"/>
<line x1="191.0" y1="154.9" x2="180.5" y2="101.9" stroke="#3c1a0e" stroke-opacity="0.45" stroke-width="1.1"/>
<line x1="194.0" y1="154.4" x2="188.5" y2="112.8" stroke="#3c1a0e" stroke-opacity="0.45" stroke-width="1.1"/>
<line x1="197.0" y1="154.1" x2="193.5" y2="100.2" stroke="#3c1a0e" stroke-opacity="0.45" stroke-width="1.1"/>
<line x1="200.0" y1="154.0" x2="200.0" y2="112.0" stroke="#3c1a0e" stroke-opacity="0.45" stroke-width="1.1"/>
<line x1="203.0" y1="154.1" x2="206.5" y2="100.2" stroke="#3c1a0e" stroke-opacity="0.45" stroke-width="1.1"/>
<line x1="206.0" y1="154.4" x2="211.5" y2="112.8" stroke="#3c1a0e" stroke-opacity="0.45" stroke-width="1.1"/>
<line x1="209.0" y1="154.9" x2="219.5" y2="101.9" stroke="#3c1a0e" stroke-opacity="0.45" stroke-width="1.1"/>
<line x1="211.9" y1="155.6" x2="222.8" y2="115.0" stroke="#3c1a0e" stroke-opacity="0.45" stroke-width="1.1"/>
<line x1="214.8" y1="156.4" x2="232.1" y2="105.3" stroke="#3c1a0e" stroke-opacity="0.45" stroke-width="1.1"/>
<line x1="217.6" y1="157.5" x2="233.7" y2="118.7" stroke="#3c1a0e" stroke-opacity="0.45" stroke-width="1.1"/>
<line x1="220.3" y1="158.7" x2="244.2" y2="110.3" stroke="#3c1a0e" stroke-opacity="0.45" stroke-width="1.1"/>
<line x1="223.0" y1="160.2" x2="244.0" y2="123.8" stroke="#3c1a0e" stroke-opacity="0.45" stroke-width="1.1"/>
<line x1="225.6" y1="161.8" x2="255.6" y2="116.9" stroke="#3c1a0e" stroke-opacity="0.45" stroke-width="1.1"/>
<line x1="228.0" y1="163.5" x2="253.6" y2="130.2" stroke="#3c1a0e" stroke-opacity="0.45" stroke-width="1.1"/>
<line x1="230.3" y1="165.4" x2="265.9" y2="124.8" stroke="#3c1a0e" stroke-opacity="0.45" stroke-width="1.1"/>
<line x1="232.5" y1="167.5" x2="262.2" y2="137.8" stroke="#3c1a0e" stroke-opacity="0.45" stroke-width="1.1"/>
<line x1="234.6" y1="169.7" x2="275.2" y2="134.1" stroke="#3c1a0e" stroke-opacity="0.45" stroke-width="1.1"/>
<line x1="236.5" y1="172.0" x2="269.8" y2="146.4" stroke="#3c1a0e" stroke-opacity="0.45" stroke-width="1.1"/>
<line x1="238.2" y1="174.4" x2="283.1" y2="144.4" stroke="#3c1a0e" stroke-opacity="0.45" stroke-width="1.1"/>
<line x1="239.8" y1="177.0" x2="276.2" y2="156.0" stroke="#3c1a0e" stroke-opacity="0.45" stroke-width="1.1"/>
<line x1="241.3" y1="179.7" x2="289.7" y2="155.8" stroke="#3c1a0e" stroke-opacity="0.45" stroke-width="1.1"/>
<line x1="242.5" y1="182.4" x2="281.3" y2="166.3" stroke="#3c1a0e" stroke-opacity="0.45" stroke-width="1.1"/>
<line x1="243.6" y1="185.2" x2="294.7" y2="167.9" stroke="#3c1a0e" stroke-opacity="0.45" stroke-width="1.1"/>
<line x1="244.4" y1="188.1" x2="285.0" y2="177.2" stroke="#3c1a0e" stroke-opacity="0.45" stroke-width="1.1"/>
<line x1="245.1" y1="191.0" x2="298.1" y2="180.5" stroke="#3c1a0e" stroke-opacity="0.45" stroke-width="1.1"/>
<line x1="245.6" y1="194.0" x2="287.2" y2="188.5" stroke="#3c1a0e" stroke-opacity="0.45" stroke-width="1.1"/>
<line x1="245.9" y1="197.0" x2="299.8" y2="193.5" stroke="#3c1a0e" stroke-opacity="0.45" stroke-width="1.1"/>
<circle cx="200" cy="200" r="104" fill="none" stroke="#2a110a" stroke-width="5"/>
<g class="blades">
<polygon points="245.0,226.0 200.0,252.0 155.0,226.0 155.0,174.0 200.0,148.0 245.0,174.0" fill="#0b0706"/>
<line x1="245.0" y1="226.0" x2="192.6" y2="218.6" stroke="#3a2a22" stroke-width="1.5"/>
<line x1="200.0" y1="252.0" x2="180.2" y2="202.8" stroke="#3a2a22" stroke-width="1.5"/>
<line x1="155.0" y1="226.0" x2="187.6" y2="184.3" stroke="#3a2a22" stroke-width="1.5"/>
<line x1="155.0" y1="174.0" x2="207.4" y2="181.4" stroke="#3a2a22" stroke-width="1.5"/>
<line x1="200.0" y1="148.0" x2="219.8" y2="197.2" stroke="#3a2a22" stroke-width="1.5"/>
<line x1="245.0" y1="174.0" x2="212.4" y2="215.7" stroke="#3a2a22" stroke-width="1.5"/>
<circle cx="200" cy="200" r="24" fill="#000"/></g>
<path d="M 95 150 A 115 115 0 0 1 180 88" fill="none" stroke="#6fd3c4" stroke-opacity="0.55" stroke-width="5" stroke-linecap="round"/>
<path d="M 300 245 A 110 110 0 0 1 250 300" fill="none" stroke="#a78bdc" stroke-opacity="0.5" stroke-width="4" stroke-linecap="round"/>
<ellipse cx="160" cy="140" rx="92" ry="58" fill="url(#sheen)" transform="rotate(-30 160 140)"/>
<circle cx="176" cy="172" r="10" fill="#fff" fill-opacity="0.95"/>
<circle cx="222" cy="226" r="4" fill="#fff" fill-opacity="0.75"/>
</g>
<circle cx="200" cy="200" r="150" fill="none" stroke="#ece5d6" stroke-opacity="0.25" stroke-width="1.5"/>
</svg>